<svg height="512" viewBox="0 0 512 512" width="512" xmlns="http://www.w3.org/2000/svg"><g id="flat"><path d="m438 488h-294v-440h320v414a26 26 0 0 1 -26 26z" fill="#fbb540"/><path d="m336 368h32v64h-32z" fill="#0bafea"/><path d="m400 344h32v88h-32z" fill="#0bafea"/><circle cx="328" cy="184" fill="#cbcbcb" r="40"/><path d="m144 48h48v440h-48z" fill="#ea9d2d"/><path d="m72 440h152a0 0 0 0 1 0 0v48a0 0 0 0 1 0 0h-152a24 24 0 0 1 -24-24 24 24 0 0 1 24-24z" fill="#04957c"/><path d="m464 24v48h-296a24.006 24.006 0 0 1 -24-24 22.974 22.974 0 0 1 .34-4 23.993 23.993 0 0 1 23.66-20z" fill="#cbcbcb"/><path d="m464 24v40h-296a24 24 0 0 1 -23.66-20 23.993 23.993 0 0 1 23.66-20z" fill="#eaeae8"/><circle cx="328" cy="184" fill="#961b20" r="16"/><path d="m328 120a64 64 0 1 0 64 64 64 64 0 0 0 -64-64zm0 104a40 40 0 1 1 40-40 40 40 0 0 1 -40 40z" fill="#961b20"/><path d="m325.657 170.343-53.657-53.657v-12.686a8 8 0 0 0 -16 0v8h-8a8 8 0 0 0 0 16h12.686l53.657 53.657a8 8 0 1 0 11.314-11.314z" fill="#ff6268"/><path d="m432 440h-128a8 8 0 0 1 0-16h128a8 8 0 0 1 0 16z" fill="#d18d28"/><path d="m432 264h-24a8 8 0 0 0 0 16h4.686l-28.686 28.687-18.343-18.344a8 8 0 0 0 -10.457-.743l-58.45 43.837-19.093-19.094a8 8 0 0 0 -10.779-.489l-48 40a8 8 0 0 0 10.244 12.292l42.387-35.323 18.834 18.834a8 8 0 0 0 10.457.743l58.45-43.837 19.093 19.094a8 8 0 0 0 11.314 0l34.343-34.343v4.686a8 8 0 0 0 16 0v-24a8 8 0 0 0 -8-8z" fill="#27c5a7"/><path d="m224 400a8 8 0 0 1 -8-8v-112a8 8 0 0 1 16 0v112a8 8 0 0 1 -8 8z" fill="#d18d28"/><path d="m88 392h128a0 0 0 0 1 0 0v48a0 0 0 0 1 0 0h-128a24 24 0 0 1 -24-24 24 24 0 0 1 24-24z" fill="#683b0d"/><path d="m128 440h-25.59a48.135 48.135 0 0 1 0-48h25.59c-8.67 0-16 10.99-16 24s7.33 24 16 24z" fill="#fbb540"/><path d="m216 392h88a0 0 0 0 1 0 0v48a0 0 0 0 1 0 0h-88a24 24 0 0 1 -24-24 24 24 0 0 1 24-24z" fill="#cbcbcb"/><path d="m304 424h-80a8 8 0 0 1 0-16h80" fill="#a8a8a8"/><path d="m112 488h-25.59a48.135 48.135 0 0 1 0-48h25.59c-8.67 0-16 10.99-16 24s7.33 24 16 24z" fill="#fbb540"/><path d="m216 440h88a0 0 0 0 1 0 0v48a0 0 0 0 1 0 0h-88a24 24 0 0 1 -24-24 24 24 0 0 1 24-24z" fill="#eaeae8"/><path d="m304 472h-80a8 8 0 0 1 0-16h80" fill="#cbcbcb"/><g fill="#0a9acd"><path d="m336 368h32v8h-32z"/><path d="m400 344h32v8h-32z"/></g></g></svg>