<svg id="Capa_1" enable-background="new 0 0 512 512" height="512" viewBox="0 0 512 512" width="512" xmlns="http://www.w3.org/2000/svg"><g><g><g><g><path d="m461.619 104.153h-62.556v-89.153c0-8.284 6.716-15 15-15h32.556c8.284 0 15 6.716 15 15z" fill="#2e3e6e"/><path d="m112.911 104.153h-62.556v-89.153c0-8.284 6.716-15 15-15h32.556c8.284 0 15 6.716 15 15z" fill="#4e6da0"/></g><g><path d="m496.784 462.693h-481.568l35.166-393.061h411.236z" fill="#e2e9ee"/><path d="m256 462.693h240.784l-35.166-393.061h-205.618z" fill="#bbd0d5"/></g></g><g><g><path d="m403.36 194.732h-85.282v-47.965c0-8.284 6.716-15 15-15h55.282c8.284 0 15 6.716 15 15z" fill="#1c2b5d"/><path d="m435.052 448.059h-148.666l31.692-253.327h85.282z" fill="#7fa6fb"/><path d="m400.976 209.158h-80.513c-8.262 0-14.96-6.716-14.96-15s6.698-15 14.96-15h80.513c8.262 0 14.96 6.716 14.96 15s-6.698 15-14.96 15z" fill="#2e3e6e"/></g><g><path d="m193.922 194.732h-85.282v-47.965c0-8.284 6.716-15 15-15h55.282c8.284 0 15 6.716 15 15z" fill="#2e3e6e"/><path d="m225.614 448.059h-148.666l31.692-253.327h85.282z" fill="#9cd6f4"/><path d="m191.538 209.158h-80.514c-8.262 0-14.96-6.716-14.96-15s6.698-15 14.96-15h80.514c8.262 0 14.96 6.716 14.96 15-.001 8.284-6.698 15-14.96 15z" fill="#4e6da0"/></g></g></g><g><path d="m511.315 429.364c-5.063 0-9.946 1.624-14.186 4.398-5.063 3.313-11.149 5.249-17.704 5.249-6.57 0-12.673-1.94-17.745-5.264-4.224-2.768-9.095-4.383-14.141-4.383-5.047 0-9.917 1.615-14.141 4.383-5.072 3.324-11.176 5.264-17.745 5.264s-12.673-1.94-17.745-5.264c-4.224-2.768-9.095-4.383-14.141-4.383-5.047 0-9.917 1.615-14.141 4.383-5.072 3.324-11.176 5.264-17.745 5.264-6.57 0-12.673-1.94-17.745-5.264-4.224-2.768-9.095-4.383-14.141-4.383-5.047 0-9.917 1.615-14.141 4.383-5.072 3.324-11.176 5.264-17.745 5.264s-12.673-1.94-17.745-5.264c-4.224-2.768-9.095-4.383-14.141-4.383-5.046 0-9.917 1.615-14.141 4.383-5.072 3.324-11.176 5.264-17.745 5.264-6.57 0-12.673-1.94-17.745-5.264-4.224-2.768-9.095-4.383-14.141-4.383-5.047 0-9.917 1.615-14.141 4.383-5.072 3.324-11.176 5.264-17.745 5.264-6.57 0-12.673-1.94-17.745-5.264-4.224-2.768-9.095-4.383-14.141-4.383-5.047 0-9.917 1.615-14.141 4.383-5.072 3.324-11.176 5.264-17.745 5.264-6.57 0-12.673-1.94-17.745-5.264-4.224-2.768-9.095-4.383-14.141-4.383-5.047 0-9.917 1.615-14.141 4.383-5.072 3.324-11.176 5.264-17.745 5.264-6.554 0-12.639-1.935-17.702-5.247-4.241-2.775-9.127-4.4-14.191-4.4h-.443v82.636h510.63z" fill="#7fa6fb"/><path d="m497.129 433.762c-5.063 3.313-11.149 5.249-17.704 5.249-6.57 0-12.673-1.94-17.745-5.264-4.224-2.768-9.095-4.383-14.141-4.383-5.047 0-9.917 1.615-14.141 4.383-5.072 3.324-11.176 5.264-17.745 5.264s-12.673-1.94-17.745-5.264c-4.224-2.768-9.095-4.383-14.141-4.383s-9.917 1.615-14.141 4.383c-5.072 3.324-11.176 5.264-17.746 5.264s-12.673-1.94-17.745-5.264c-4.224-2.768-9.095-4.383-14.141-4.383s-9.917 1.615-14.141 4.383c-5.072 3.324-11.176 5.264-17.745 5.264s-12.673-1.94-17.745-5.264c-4.224-2.768-9.095-4.383-14.141-4.383-.073 0-.145.008-.217.009v82.627h255.315v-82.636c-5.067 0-9.951 1.624-14.191 4.398z" fill="#4a75e5"/></g><g><path d="m.685 480.177h510.63v31.823h-510.63z" fill="#fbf4f4"/><path d="m256 480.177h255.315v31.823h-255.315z" fill="#e2e9ee"/></g></g></svg>